<?xml version="1.0" standalone="no"?>
<!DOCTYPE svg PUBLIC "-//W3C//DTD SVG 20010904//EN"
 "http://www.w3.org/TR/2001/REC-SVG-20010904/DTD/svg10.dtd">
<svg version="1.0" xmlns="http://www.w3.org/2000/svg"
 width="1409.000000pt" height="326.000000pt" viewBox="0 0 1409.000000 326.000000"
 preserveAspectRatio="xMidYMid meet">

<g transform="translate(0.000000,326.000000) scale(0.100000,-0.100000)"
fill="#000000" stroke="none">
<path d="M1532 2934 c-418 -61 -914 -262 -1129 -457 -73 -67 -133 -159 -133
-204 0 -58 34 -44 129 53 268 275 663 449 1156 510 226 28 458 2 604 -69 77
-38 164 -115 193 -171 29 -56 35 -155 14 -228 -42 -143 -198 -312 -396 -428
-223 -131 -446 -216 -733 -279 l-87 -19 -44 68 c-24 37 -54 85 -67 107 l-23
40 69 89 c98 125 258 307 407 461 78 80 128 139 128 152 0 25 -49 61 -95 68
-28 4 -41 1 -58 -15 -12 -12 -42 -30 -67 -41 -62 -27 -90 -56 -90 -91 0 -21
-20 -51 -81 -122 -83 -94 -286 -360 -296 -384 -3 -10 -22 1 -61 36 -68 61
-175 118 -236 126 -99 14 -177 -33 -225 -136 -22 -47 -26 -68 -26 -150 1 -77
5 -105 24 -147 31 -69 89 -121 183 -162 l76 -34 -35 -76 c-48 -106 -119 -320
-139 -420 -28 -140 -11 -206 66 -259 26 -17 47 -22 101 -22 38 0 71 5 75 11
10 16 -21 42 -64 54 -53 15 -77 66 -77 165 1 91 51 248 138 433 l56 117 43 1
c24 0 85 6 136 13 l93 12 96 -141 c182 -266 308 -420 472 -577 86 -83 115
-104 203 -147 121 -59 216 -81 350 -81 154 1 343 55 448 130 l29 21 -26 -58
c-15 -32 -27 -76 -27 -98 l-1 -40 58 1 c45 1 74 9 125 35 75 38 112 83 112
136 0 27 -6 37 -30 51 -16 9 -30 20 -30 24 0 8 157 358 163 365 3 2 58 -32
123 -76 126 -85 459 -261 493 -261 12 0 21 5 21 12 0 16 -86 98 -205 194 -115
93 -202 184 -211 220 -7 29 14 74 60 128 25 29 72 54 235 126 111 49 239 111
283 137 84 50 158 108 158 124 0 21 -50 5 -208 -67 -227 -103 -602 -251 -602
-237 0 3 29 62 65 132 60 116 76 137 197 266 304 325 432 513 494 722 28 96
36 224 16 259 -6 12 -25 27 -41 34 -27 11 -35 9 -83 -17 -73 -39 -185 -152
-251 -253 -97 -150 -238 -448 -396 -840 -23 -58 -70 -161 -104 -229 l-62 -124
-75 -24 c-41 -13 -81 -30 -88 -37 -19 -19 -2 -48 43 -76 19 -12 35 -25 35 -29
0 -17 -112 -273 -141 -323 -35 -59 -57 -81 -143 -139 -89 -59 -195 -89 -315
-89 -158 0 -286 41 -441 141 -85 55 -360 331 -481 484 -100 125 -184 244 -178
249 2 2 47 16 99 30 332 94 664 235 869 370 186 122 300 239 363 372 30 63 33
77 33 164 0 83 -4 101 -27 145 -99 189 -411 308 -800 304 -62 -1 -155 -7 -206
-15z m2298 -214 c25 -47 -71 -283 -179 -444 -106 -156 -320 -401 -336 -384
-11 10 96 289 161 423 85 175 153 282 227 360 68 71 106 84 127 45z m-3152
-720 c58 -27 172 -121 172 -142 0 -5 -28 -58 -61 -119 -39 -69 -67 -109 -78
-109 -30 0 -116 47 -150 81 -72 72 -115 236 -77 294 25 37 109 36 194 -5z
m296 -316 c21 -31 35 -58 33 -60 -3 -3 -36 -4 -75 -2 l-70 3 35 58 c20 31 37
57 38 57 1 0 19 -25 39 -56z"/>
<path d="M5993 2889 c-114 -56 -365 -391 -678 -904 -159 -261 -126 -229 -252
-249 -139 -22 -194 -40 -225 -74 -52 -55 -76 -136 -44 -148 8 -3 72 11 143 30
72 20 133 36 136 36 3 0 -34 -82 -83 -182 -187 -389 -250 -559 -257 -693 -5
-86 -4 -91 20 -113 39 -37 96 -40 161 -8 60 30 129 98 124 124 -4 18 -27 19
-99 7 -25 -5 -39 -2 -48 8 -64 78 31 329 301 792 l70 120 106 28 c133 34 246
48 320 41 64 -7 85 5 85 51 0 49 -46 70 -95 44 -17 -9 -328 -29 -328 -21 0 7
185 295 325 507 255 386 349 484 440 461 50 -13 73 -106 56 -230 -12 -84 -3
-120 27 -114 21 4 29 45 38 178 13 208 -35 305 -161 324 -30 4 -52 0 -82 -15z"/>
<path d="M12485 2531 c-91 -55 -281 -320 -540 -753 l-118 -197 -29 24 c-38 32
-100 48 -152 40 -53 -8 -238 -98 -341 -165 -105 -69 -215 -161 -262 -218 -21
-26 -85 -98 -141 -160 -176 -194 -196 -290 -78 -372 74 -50 101 -45 295 61
213 118 294 165 355 206 26 18 56 33 66 33 44 0 40 -79 -15 -250 -25 -77 -45
-154 -45 -170 0 -76 97 -114 146 -56 22 25 24 35 23 144 -1 113 1 122 45 257
84 256 204 466 450 790 67 88 152 203 189 255 37 52 92 127 122 165 140 177
185 269 164 332 -18 55 -76 70 -134 34z m-751 -982 c19 -16 38 -39 41 -49 3
-11 -15 -69 -45 -142 -56 -135 -71 -154 -206 -253 -208 -156 -501 -274 -552
-223 -7 7 -12 33 -12 58 0 78 71 182 240 349 112 111 230 205 320 255 53 29
75 36 122 36 50 0 62 -4 92 -31z"/>
<path d="M13345 1826 c-156 -50 -323 -193 -398 -342 -14 -28 -31 -81 -38 -118
-15 -87 -3 -135 61 -246 59 -105 75 -156 61 -208 -23 -86 -115 -133 -317 -162
-165 -24 -164 -24 -164 -49 0 -50 199 -60 371 -18 332 81 648 218 502 217 -21
0 -75 -9 -119 -18 l-82 -18 -5 62 c-3 42 -19 97 -52 175 -82 197 -105 270
-105 330 0 50 5 64 40 117 51 75 143 162 206 193 26 12 71 25 99 27 77 6 81
-2 77 -170 l-3 -140 23 4 c38 5 90 119 96 212 6 92 -7 129 -53 150 -40 19
-143 20 -200 2z"/>
<path d="M5920 1749 c-45 -14 -167 -105 -246 -183 -192 -193 -280 -424 -232
-614 15 -60 96 -145 153 -161 93 -25 192 -8 320 56 146 74 325 223 325 272 0
34 -20 25 -109 -45 -178 -141 -316 -209 -406 -202 -85 7 -140 67 -133 145 3
36 6 39 118 101 300 165 424 279 471 433 20 67 20 69 2 106 -34 71 -172 119
-263 92z m150 -129 c11 -11 20 -30 20 -43 0 -27 -44 -99 -96 -157 -75 -83
-325 -256 -358 -248 -12 2 -9 17 15 76 40 100 71 142 186 252 89 86 167 139
201 140 6 0 21 -9 32 -20z"/>
<path d="M12493 1750 c-60 -14 -241 -162 -321 -263 -146 -183 -206 -385 -161
-537 18 -60 100 -144 154 -159 124 -34 259 7 452 137 94 63 193 161 193 191 0
28 -18 26 -61 -7 -20 -15 -74 -56 -120 -91 -103 -79 -235 -143 -305 -149 -99
-8 -167 50 -162 138 l3 44 135 76 c153 85 212 124 288 188 116 98 193 246 171
326 -12 42 -61 80 -135 102 -51 15 -81 16 -131 4z m147 -130 c11 -11 20 -27
20 -35 0 -57 -88 -169 -204 -259 -99 -78 -223 -156 -248 -156 -16 0 -16 4 3
57 37 110 98 190 228 306 71 63 140 107 169 107 6 0 21 -9 32 -20z"/>
<path d="M6576 1698 c-14 -22 -150 -300 -310 -633 -72 -150 -76 -164 -76 -227
0 -68 14 -98 45 -98 38 0 63 28 119 129 74 136 163 262 262 369 177 192 321
271 440 241 38 -10 48 -9 71 7 61 39 95 112 73 154 -11 20 -18 22 -73 18 -42
-2 -83 -14 -127 -34 -81 -39 -283 -174 -374 -251 -113 -95 -107 -93 -90 -30 8
31 36 114 63 185 65 172 68 192 21 192 -20 0 -34 -7 -44 -22z"/>
<path d="M8947 1696 c-105 -39 -260 -170 -370 -313 -83 -108 -175 -262 -208
-346 -27 -70 -30 -92 -27 -154 4 -87 29 -123 85 -123 56 0 112 37 238 158 211
204 268 257 262 246 -15 -27 -48 -279 -43 -318 9 -57 40 -105 80 -121 28 -12
42 -12 84 -1 96 25 312 168 325 215 12 48 -18 41 -113 -24 -128 -87 -192 -94
-227 -25 -53 105 95 512 244 671 l43 46 -32 25 c-73 56 -118 72 -213 75 -60 2
-103 -1 -128 -11z m141 -58 c19 -19 14 -75 -13 -128 -88 -174 -407 -510 -509
-536 -81 -20 -72 111 20 287 37 71 180 222 284 300 98 75 189 106 218 77z"/>
<path d="M7346 1588 c-14 -13 -44 -66 -66 -118 -23 -52 -102 -213 -176 -357
-81 -158 -134 -274 -134 -291 0 -65 85 -84 158 -34 22 15 91 82 154 149 204
219 398 388 474 413 65 22 68 11 74 -228 7 -238 14 -264 77 -281 93 -26 222
48 374 214 134 147 117 166 -51 56 -76 -51 -117 -71 -150 -76 -75 -10 -74 -12
-80 222 -3 114 -10 216 -14 226 -9 20 -56 47 -82 47 -33 0 -141 -61 -204 -116
-36 -31 -141 -119 -234 -196 -158 -131 -171 -139 -183 -122 -25 33 -3 107 93
320 35 78 64 148 64 156 0 41 -55 50 -94 16z"/>
<path d="M9786 1588 c-14 -13 -44 -66 -66 -118 -23 -52 -102 -213 -176 -357
-81 -158 -134 -274 -134 -291 0 -16 8 -36 18 -45 27 -25 92 -22 133 6 19 13
122 112 229 221 211 215 329 316 398 343 40 15 44 15 60 -1 14 -14 18 -47 22
-224 7 -238 14 -264 77 -281 99 -28 235 54 395 237 110 126 86 136 -72 33
-106 -70 -176 -94 -209 -72 -10 7 -15 55 -19 212 -5 221 -12 252 -59 270 -58
22 -142 -18 -273 -133 -86 -74 -290 -244 -345 -286 -28 -22 -30 -22 -42 -5
-23 31 3 122 87 303 32 69 62 137 65 153 14 55 -42 77 -89 35z"/>
<path d="M3891 1337 c-60 -21 -69 -70 -14 -83 39 -10 587 22 701 41 35 6 42
20 15 29 -87 27 -633 37 -702 13z"/>
</g>
</svg>
